name precision_landing05_filtered_grf.mot
datacolumns 37
datarows 15
range 1.339000 1.346000
endheader
time	1_ground_force_vx	1_ground_force_vy	1_ground_force_vz	1_ground_force_px	1_ground_force_py	1_ground_force_pz	1_ground_torque_x	1_ground_torque_y	1_ground_torque_z	2_ground_force_vx	2_ground_force_vy	2_ground_force_vz	2_ground_force_px	2_ground_force_py	2_ground_force_pz	2_ground_torque_x	2_ground_torque_y	2_ground_torque_z	3_ground_force_vx	3_ground_force_vy	3_ground_force_vz	3_ground_force_px	3_ground_force_py	3_ground_force_pz	3_ground_torque_x	3_ground_torque_y	3_ground_torque_z	4_ground_force_vx	4_ground_force_vy	4_ground_force_vz	4_ground_force_px	4_ground_force_py	4_ground_force_pz	4_ground_torque_x	4_ground_torque_y	4_ground_torque_z
            1.339000	          -50.813919	          776.067865	          196.951539	            0.080540	            0.000000	            0.196837	           -0.866553	           13.234634	            3.358703	           21.707190	          824.342986	          205.263509	           -0.124532	            0.000000	            0.192812	            1.081662	           41.076728	           10.228210	           10.576788	           -1.569717	           -4.496066	            0.381244	            1.275793	            1.884482	           -0.020335	            0.003018	            0.008644	           -5.751506	           -0.497810	           -0.382406	           -0.351478	            1.268397	            1.872164	            0.019916	            0.001724	            0.001324
            1.339500	          -50.501528	          777.096895	          196.306675	            0.080555	            0.000000	            0.196902	           -0.864883	           13.308463	            3.361923	           21.534614	          822.400504	          203.894825	           -0.124425	            0.000000	            0.192838	            1.068752	           40.815331	           10.119200	           10.610334	           -1.539500	           -4.488233	            0.381243	            1.275793	            1.884480	           -0.021103	            0.003062	            0.008927	           -5.718544	           -0.503392	           -0.380709	           -0.351479	            1.268394	            1.872168	            0.020110	            0.001770	            0.001339
            1.340000	          -50.157978	          778.112258	          195.692097	            0.080561	            0.000000	            0.196958	           -0.862784	           13.384573	            3.366166	           21.337071	          820.477802	          202.505233	           -0.124314	            0.000000	            0.192868	            1.054416	           40.545646	           10.007224	           10.644668	           -1.509791	           -4.480188	            0.381241	            1.275793	            1.884479	           -0.021842	            0.003098	            0.009193	           -5.686816	           -0.507490	           -0.378008	           -0.351479	            1.268391	            1.872173	            0.020324	            0.001814	            0.001351
            1.340500	          -49.784438	          779.112504	          195.107840	            0.080559	            0.000000	            0.197005	           -0.860240	           13.462508	            3.371324	           21.113397	          818.573815	          201.097458	           -0.124199	            0.000000	            0.192899	            1.038629	           40.268023	            9.892568	           10.679652	           -1.480753	           -4.471907	            0.381239	            1.275793	            1.884478	           -0.022550	            0.003127	            0.009442	           -5.656617	           -0.510037	           -0.374378	           -0.351480	            1.268387	            1.872179	            0.020557	            0.001854	            0.001361
            1.341000	          -49.382064	          780.096353	          194.553755	            0.080548	            0.000000	            0.197043	           -0.857231	           13.541814	            3.377289	           20.863448	          816.687765	          199.674346	           -0.124080	            0.000000	            0.192931	            1.021422	           39.982996	            9.775558	           10.715123	           -1.452612	           -4.463403	            0.381237	            1.275793	            1.884477	           -0.023221	            0.003148	            0.009673	           -5.628229	           -0.510986	           -0.369893	           -0.351480	            1.268382	            1.872185	            0.020809	            0.001889	            0.001368
            1.341500	          -48.951974	          781.062694	          194.029521	            0.080528	            0.000000	            0.197073	           -0.853742	           13.622051	            3.383954	           20.588062	          814.819173	          198.238865	           -0.123956	            0.000000	            0.192964	            1.002881	           39.691272	            9.656563	           10.750923	           -1.425555	           -4.454681	            0.381235	            1.275793	            1.884476	           -0.023852	            0.003163	            0.009883	           -5.601925	           -0.510303	           -0.364636	           -0.351481	            1.268378	            1.872191	            0.021081	            0.001920	            0.001372
            1.342000	          -48.495232	          782.010594	          193.534656	            0.080501	            0.000000	            0.197093	           -0.849760	           13.702815	            3.391220	           20.288999	          812.967854	          196.794108	           -0.123829	            0.000000	            0.192997	            0.983138	           39.393729	            9.535991	           10.786894	           -1.399764	           -4.445752	            0.381233	            1.275793	            1.884475	           -0.024439	            0.003171	            0.010072	           -5.577958	           -0.507968	           -0.358694	           -0.351481	            1.268374	            1.872197	            0.021370	            0.001946	            0.001374
            1.342500	          -48.012833	          782.939300	          193.068546	            0.080465	            0.000000	            0.197104	           -0.845272	           13.783745	            3.398996	           19.968867	          811.133916	          195.343294	           -0.123697	            0.000000	            0.193028	            0.962370	           39.091399	            9.414281	           10.822876	           -1.375410	           -4.436630	            0.381231	            1.275793	            1.884474	           -0.024979	            0.003174	            0.010240	           -5.556564	           -0.503981	           -0.352155	           -0.351482	            1.268370	            1.872203	            0.021676	            0.001966	            0.001374
            1.343000	          -47.505696	          783.848242	          192.630454	            0.080421	            0.000000	            0.197105	           -0.840271	           13.864543	            3.407207	           19.631027	          809.317752	          193.889758	           -0.123562	            0.000000	            0.193058	            0.940790	           38.785454	            9.291903	           10.858718	           -1.352634	           -4.427323	            0.381229	            1.275793	            1.884474	           -0.025469	            0.003173	            0.010384	           -5.537950	           -0.498350	           -0.345187	           -0.351482	            1.268365	            1.872209	            0.021998	            0.001980	            0.001371
            1.343500	          -46.974663	          784.737031	          192.219550	            0.080370	            0.000000	            0.197098	           -0.834752	           13.944988	            3.415793	           19.279487	          807.520028	          192.436953	           -0.123424	            0.000000	            0.193087	            0.918640	           38.477191	            9.169350	           10.894256	           -1.331610	           -4.417866	            0.381227	            1.275793	            1.884474	           -0.025906	            0.003166	            0.010505	           -5.522306	           -0.491115	           -0.337796	           -0.351482	            1.268361	            1.872216	            0.022333	            0.001986	            0.001366
            1.344000	          -46.420501	          785.605453	          191.834924	            0.080311	            0.000000	            0.197082	           -0.828717	           14.024943	            3.424714	           18.918783	          805.741673	          190.988433	           -0.123284	            0.000000	            0.193114	            0.896183	           38.168010	            9.047128	           10.929337	           -1.312477	           -4.408289	            0.381225	            1.275793	            1.884474	           -0.026288	            0.003157	            0.010603	           -5.509791	           -0.482330	           -0.330065	           -0.351482	            1.268357	            1.872222	            0.022679	            0.001985	            0.001359
            1.344500	          -45.843914	          786.453463	          191.475601	            0.080245	            0.000000	            0.197057	           -0.822171	           14.104364	            3.433950	           18.553853	          803.983860	          189.547841	           -0.123143	            0.000000	            0.193140	            0.873696	           37.859389	            8.925758	           10.963814	           -1.295361	           -4.398623	            0.381223	            1.275793	            1.884474	           -0.026614	            0.003144	            0.010677	           -5.500530	           -0.472063	           -0.322074	           -0.351482	            1.268352	            1.872229	            0.023032	            0.001977	            0.001349
            1.345000	          -45.245555	          787.281167	          191.140554	            0.080172	            0.000000	            0.197025	           -0.815124	           14.183304	            3.443502	           18.189911	          802.247995	          188.118896	           -0.123001	            0.000000	            0.193163	            0.851461	           37.552865	            8.805760	           10.997544	           -1.280372	           -4.388903	            0.381221	            1.275794	            1.884474	           -0.026882	            0.003130	            0.010728	           -5.494616	           -0.460402	           -0.313896	           -0.351483	            1.268348	            1.872235	            0.023389	            0.001960	            0.001336
            1.345500	          -44.626046	          788.088811	          190.828714	            0.080093	            0.000000	            0.196985	           -0.807590	           14.261903	            3.453393	           17.832316	          800.535696	          186.705365	           -0.122860	            0.000000	            0.193184	            0.829762	           37.250007	            8.687653	           11.030400	           -1.267598	           -4.379155	            0.381219	            1.275794	            1.884475	           -0.027092	            0.003113	            0.010756	           -5.492101	           -0.447443	           -0.305740	           -0.351482	            1.268344	            1.872241	            0.023748	            0.001935	            0.001322
            1.346000	          -43.985994	          788.876765	          190.538980	            0.080008	            0.000000	            0.196938	           -0.799588	           14.340389	            3.463663	           17.486440	          798.848771	          185.311047	           -0.122721	            0.000000	            0.193204	            0.808871	           36.952392	            8.571943	           11.062253	           -1.257122	           -4.369432	            0.381217	            1.275794	            1.884476	           -0.027244	            0.003096	            0.010761	           -5.493016	           -0.433316	           -0.297527	           -0.351482	            1.268341	            1.872247	            0.024103	            0.001901	            0.001306
